<svg width="16" height="12" viewBox="0 0 16 12" fill="none" xmlns="http://www.w3.org/2000/svg">
<path d="M0 11.8615V7.16851C0 6.81653 0.0716991 6.49715 0.215097 6.21035C0.358496 5.92355 0.547521 5.66935 0.782172 5.44773V3.25765C0.782172 2.60584 1.01031 2.0518 1.46657 1.59553C1.92284 1.13927 2.47688 0.911133 3.12869 0.911133H6.25738C6.55721 0.911133 6.83749 0.966537 7.09821 1.07734C7.35894 1.18815 7.60011 1.34133 7.82172 1.53687C8.04334 1.34133 8.28451 1.18815 8.54523 1.07734C8.80596 0.966537 9.08624 0.911133 9.38607 0.911133H12.5148C13.1666 0.911133 13.7206 1.13927 14.1769 1.59553C14.6331 2.0518 14.8613 2.60584 14.8613 3.25765V5.44773C15.0959 5.66935 15.285 5.92355 15.4284 6.21035C15.5717 6.49715 15.6434 6.81653 15.6434 7.16851V11.8615H14.0791V10.2972H1.56434V11.8615H0ZM8.6039 4.82199H13.2969V3.25765C13.2969 3.03603 13.222 2.85027 13.0721 2.70035C12.9221 2.55044 12.7364 2.47548 12.5148 2.47548H9.38607C9.16445 2.47548 8.97869 2.55044 8.82877 2.70035C8.67885 2.85027 8.6039 3.03603 8.6039 3.25765V4.82199ZM2.34652 4.82199H7.03955V3.25765C7.03955 3.03603 6.96459 2.85027 6.81468 2.70035C6.66476 2.55044 6.47899 2.47548 6.25738 2.47548H3.12869C2.90707 2.47548 2.72131 2.55044 2.57139 2.70035C2.42148 2.85027 2.34652 3.03603 2.34652 3.25765V4.82199ZM1.56434 8.73286H14.0791V7.16851C14.0791 6.9469 14.0041 6.76113 13.8542 6.61121C13.7043 6.4613 13.5185 6.38634 13.2969 6.38634H2.34652C2.1249 6.38634 1.93914 6.4613 1.78922 6.61121C1.6393 6.76113 1.56434 6.9469 1.56434 7.16851V8.73286Z" fill="#1C1B1F"/>
</svg>
