<?xml version="1.0" encoding="UTF-8"?>
<svg id="Livello_2" data-name="Livello 2" xmlns="http://www.w3.org/2000/svg" viewBox="0 0 280.12 276.6">
  <defs>
    <style>
      .cls-1 {
        fill: #484848;
        stroke-width: 0px;
      }
    </style>
  </defs>
  <g id="Livello_1-2" data-name="Livello 1">
    <g>
      <path class="cls-1" d="M124.91,214.74l-18.49,18.28c-2.05,2.02-4.82,3.15-7.72,3.15s-5.67-1.13-7.72-3.15L3.19,146.26c-2.04-2.03-3.19-4.77-3.19-7.63s1.15-5.6,3.19-7.63L91.64,43.59c2.05-2.02,4.83-3.15,7.72-3.15s5.67,1.13,7.73,3.15l18.52,18.28c2.04,2.02,3.18,4.76,3.18,7.62s-1.14,5.59-3.18,7.62l-2.17,2.12-52.33,51.71c-2.04,2.02-3.19,4.77-3.19,7.62s1.15,5.6,3.19,7.62l53.8,53.31c1.02,1,1.83,2.19,2.38,3.49.55,1.31.84,2.71.84,4.13s-.28,2.82-.84,4.13c-.55,1.31-1.36,2.5-2.38,3.49Z"/>
      <path class="cls-1" d="M113.71,255.26l18.38,18.18c2.05,2.02,4.82,3.15,7.71,3.15s5.67-1.13,7.71-3.15l.65-.66,128.74-127.2c1.02-1,1.82-2.18,2.37-3.49.55-1.31.83-2.71.83-4.12s-.28-2.82-.83-4.12c-.55-1.31-1.36-2.49-2.37-3.49L148.17,3.15c-1.01-1-2.21-1.79-3.53-2.33s-2.73-.82-4.16-.82-2.84.28-4.16.82-2.52,1.33-3.53,2.33l-18.4,18.18c-2.03,2.02-3.18,4.76-3.18,7.61s1.14,5.59,3.18,7.61l92.04,90.93,2.94,2.88c1.01,1,1.81,2.18,2.36,3.49.55,1.3.83,2.7.83,4.11s-.28,2.81-.83,4.11c-.55,1.3-1.35,2.49-2.36,3.49l-95.65,94.52c-1.01,1-1.81,2.18-2.36,3.49-.55,1.3-.83,2.7-.83,4.11s.28,2.81.83,4.11c.55,1.3,1.35,2.49,2.36,3.49Z"/>
    </g>
  </g>
</svg>