<svg width="35" height="35" viewBox="0 0 35 35" fill="none" xmlns="http://www.w3.org/2000/svg">
<path d="M31.2101 0.172852H4.47053C3.50347 0.172852 2.57601 0.557015 1.8922 1.24083C1.20838 1.92465 0.824219 2.8521 0.824219 3.81916L0.824219 30.5588C0.824219 31.5258 1.20838 32.4533 1.8922 33.1371C2.57601 33.8209 3.50347 34.2051 4.47053 34.2051H14.8967V22.6349H10.1109V17.189H14.8967V13.0382C14.8967 8.31703 17.7074 5.70916 22.0123 5.70916C24.074 5.70916 26.2299 6.07683 26.2299 6.07683V10.7107H23.8545C21.514 10.7107 20.784 12.1631 20.784 13.6528V17.189H26.0088L25.1732 22.6349H20.784V34.2051H31.2101C32.1772 34.2051 33.1046 33.8209 33.7885 33.1371C34.4723 32.4533 34.8564 31.5258 34.8564 30.5588V3.81916C34.8564 2.8521 34.4723 1.92465 33.7885 1.24083C33.1046 0.557015 32.1772 0.172852 31.2101 0.172852Z" fill="#484848"/>
</svg>
