<svg width="35" height="35" viewBox="0 0 35 35" fill="none" xmlns="http://www.w3.org/2000/svg">
<path d="M17.2231 0.172852C12.5974 0.172852 12.0209 0.195188 10.2106 0.27177C8.3928 0.361116 7.16323 0.64298 6.07832 1.06418C4.94285 1.49285 3.91452 2.164 3.06503 3.03085C2.19576 3.87836 1.52424 4.90725 1.09836 6.04414C0.67716 7.12905 0.395295 8.35862 0.30595 10.1764C0.224049 11.9878 0.207031 12.5632 0.207031 17.189C0.207031 21.8147 0.229368 22.3912 0.30595 24.2015C0.395295 26.014 0.67716 27.2489 1.09836 28.3338C1.52703 29.4692 2.19818 30.4976 3.06503 31.3471C3.91254 32.2163 4.94143 32.8879 6.07832 33.3137C7.16323 33.7296 8.39812 34.0168 10.2106 34.1061C12.0219 34.188 12.5974 34.2051 17.2231 34.2051C21.8489 34.2051 22.4254 34.1827 24.2357 34.1061C26.0482 34.0168 27.283 33.7286 28.368 33.3137C29.5034 32.8851 30.5318 32.2139 31.3812 31.3471C32.2516 30.5005 32.9233 29.4713 33.3479 28.3338C33.7638 27.2489 34.051 26.014 34.1403 24.2015C34.2222 22.3902 34.2392 21.8147 34.2392 17.189C34.2392 12.5632 34.2169 11.9867 34.1403 10.1764C34.051 8.36394 33.7627 7.12267 33.3479 6.04414C32.9192 4.90867 32.2481 3.88034 31.3812 3.03085C30.5347 2.16046 29.5055 1.48876 28.368 1.06418C27.283 0.64298 26.0482 0.361116 24.2357 0.27177C22.4243 0.18987 21.8489 0.172852 17.2231 0.172852ZM17.2231 3.23613C21.7659 3.23613 22.3084 3.25847 24.1038 3.33505C25.7599 3.4127 26.6619 3.68924 27.2607 3.92324C28.001 4.19652 28.6711 4.63147 29.2221 5.19642C29.786 5.74507 30.2194 6.41359 30.4899 7.15245C30.7239 7.75128 31.0005 8.65325 31.0781 10.3093C31.1547 12.1048 31.177 12.6483 31.177 17.19C31.177 21.7318 31.1547 22.2753 31.0717 24.0707C30.9824 25.7268 30.7058 26.6288 30.4729 27.2276C30.1506 28.0264 29.7911 28.5848 29.1976 29.1889C28.6448 29.7503 27.9751 30.1832 27.2362 30.4568C26.6449 30.6908 25.7301 30.9673 24.0677 31.045C22.2627 31.1216 21.7308 31.1439 17.1763 31.1439C12.6218 31.1439 12.0911 31.1216 10.284 31.0386C8.62787 30.9493 7.7142 30.6727 7.11537 30.4398C6.307 30.1175 5.75285 29.758 5.15934 29.1645C4.56051 28.5656 4.17973 27.9955 3.88616 27.2031C3.64791 26.6117 3.37561 25.697 3.28733 24.0345C3.2267 22.2508 3.19799 21.6977 3.19799 17.1645C3.19799 12.6334 3.2267 12.0792 3.28733 10.2732C3.37561 8.6107 3.64791 7.6981 3.88616 7.10459C4.17973 6.29516 4.56157 5.74207 5.15934 5.14324C5.75178 4.55079 6.307 4.16788 7.11537 3.86794C7.7142 3.635 8.60553 3.35845 10.268 3.27549C12.073 3.21061 12.6048 3.18721 17.1529 3.18721L17.2231 3.23613ZM17.2231 8.45541C16.0758 8.45499 14.9397 8.68066 13.8796 9.11952C12.8196 9.55838 11.8564 10.2018 11.0452 11.0131C10.2339 11.8244 9.59044 12.7875 9.15158 13.8476C8.71271 14.9076 8.48705 16.0438 8.48747 17.1911C8.48705 18.3384 8.71271 19.4745 9.15158 20.5346C9.59044 21.5946 10.2339 22.5578 11.0452 23.3691C11.8564 24.1803 12.8196 24.8238 13.8796 25.2626C14.9397 25.7015 16.0758 25.9272 17.2231 25.9268C18.3704 25.9272 19.5066 25.7015 20.5666 25.2626C21.6267 24.8238 22.5899 24.1803 23.4011 23.3691C24.2124 22.5578 24.8558 21.5946 25.2947 20.5346C25.7336 19.4745 25.9592 18.3384 25.9588 17.1911C25.9592 16.0438 25.7336 14.9076 25.2947 13.8476C24.8558 12.7875 24.2124 11.8244 23.4011 11.0131C22.5899 10.2018 21.6267 9.55838 20.5666 9.11952C19.5066 8.68066 18.3704 8.45499 17.2231 8.45541V8.45541ZM17.2231 22.8635C14.0875 22.8635 11.5507 20.3267 11.5507 17.1911C11.5507 14.0555 14.0875 11.5187 17.2231 11.5187C20.3587 11.5187 22.8955 14.0555 22.8955 17.1911C22.8955 20.3267 20.3587 22.8635 17.2231 22.8635ZM28.3531 8.10654C28.3525 8.64864 28.1368 9.16834 27.7532 9.55146C27.3697 9.93459 26.8498 10.1498 26.3077 10.1498C26.0396 10.1498 25.7742 10.097 25.5266 9.99442C25.2789 9.89184 25.0539 9.74149 24.8644 9.55196C24.6749 9.36242 24.5245 9.13741 24.4219 8.88977C24.3194 8.64213 24.2666 8.37671 24.2666 8.10867C24.2666 7.84062 24.3194 7.5752 24.4219 7.32756C24.5245 7.07992 24.6749 6.85491 24.8644 6.66537C25.0539 6.47584 25.2789 6.32549 25.5266 6.22291C25.7742 6.12034 26.0396 6.06754 26.3077 6.06754C27.432 6.06754 28.3531 6.98227 28.3531 8.10654V8.10654Z" fill="#484848"/>
</svg>
