<svg width="32" height="32" viewBox="0 0 32 32" fill="none" xmlns="http://www.w3.org/2000/svg">
<path d="M3.48438 4.4134V28.3589C3.48454 28.4109 3.50003 28.4616 3.52892 28.5048C3.5578 28.548 3.59879 28.5817 3.64675 28.6016C3.69471 28.6216 3.7475 28.627 3.7985 28.6171C3.8495 28.6072 3.89643 28.5824 3.93343 28.546L16.4015 16.3868L3.93343 4.22635C3.89643 4.18987 3.8495 4.16513 3.7985 4.15523C3.7475 4.14533 3.69471 4.1507 3.64675 4.17068C3.59879 4.19065 3.5578 4.22434 3.52892 4.26752C3.50003 4.3107 3.48454 4.36145 3.48438 4.4134Z" fill="#484848"/>
<path d="M21.633 11.3905L5.99955 2.77746L5.9898 2.77197C5.72049 2.62574 5.46458 2.9901 5.68515 3.20214L17.94 14.9202L21.633 11.3905Z" fill="#484848"/>
<path d="M5.68586 29.5709C5.46408 29.7829 5.71999 30.1473 5.99051 30.001L6.00026 29.9955L21.6325 21.3825L17.9395 17.8516L5.68586 29.5709Z" fill="#484848"/>
<path d="M27.9392 14.8633L23.5736 12.459L19.4688 16.3865L23.5736 20.3123L27.9392 17.9098C29.1268 17.2536 29.1268 15.5195 27.9392 14.8633Z" fill="#484848"/>
</svg>
