<svg width="35" height="35" viewBox="0 0 35 35" fill="none" xmlns="http://www.w3.org/2000/svg">
<path fill-rule="evenodd" clip-rule="evenodd" d="M0.273438 3.01609C0.273438 2.26202 0.572992 1.53883 1.1062 1.00562C1.63941 0.47241 2.3626 0.172855 3.11667 0.172855H31.4593C31.833 0.172245 32.2032 0.245348 32.5486 0.38798C32.894 0.530612 33.2079 0.739971 33.4722 1.00407C33.7366 1.26817 33.9463 1.58183 34.0893 1.92708C34.2323 2.27233 34.3058 2.64239 34.3056 3.01609V31.3587C34.3061 31.7325 34.2328 32.1027 34.09 32.4481C33.9472 32.7935 33.7377 33.1074 33.4734 33.3717C33.2092 33.6361 32.8954 33.8458 32.5501 33.9888C32.2048 34.1318 31.8346 34.2053 31.4609 34.2051H3.11667C2.74316 34.2051 2.37332 34.1315 2.02826 33.9885C1.6832 33.8455 1.36969 33.6359 1.10566 33.3717C0.841616 33.1076 0.632217 32.7939 0.489422 32.4488C0.346627 32.1037 0.273235 31.7338 0.273438 31.3603V3.01609ZM13.744 13.1484H18.3523V15.4626C19.0175 14.1322 20.7191 12.9349 23.2761 12.9349C28.1783 12.9349 29.34 15.5848 29.34 20.4468V29.4529H24.3791V21.5544C24.3791 18.7854 23.7139 17.223 22.0247 17.223C19.6811 17.223 18.7065 18.9076 18.7065 21.5544V29.4529H13.744V13.1484ZM5.23595 29.241H10.1985V12.9349H5.23595V29.2395V29.241ZM10.9085 7.61663C10.9179 8.04152 10.8423 8.46401 10.6861 8.85929C10.53 9.25457 10.2965 9.61468 9.99927 9.91849C9.70208 10.2223 9.3472 10.4637 8.95545 10.6285C8.5637 10.7933 8.14298 10.8782 7.71798 10.8782C7.29298 10.8782 6.87227 10.7933 6.48052 10.6285C6.08877 10.4637 5.73389 10.2223 5.43669 9.91849C5.1395 9.61468 4.90598 9.25457 4.74985 8.85929C4.59371 8.46401 4.51811 8.04152 4.52746 7.61663C4.54583 6.78261 4.89004 5.98895 5.48638 5.40559C6.08271 4.82224 6.88377 4.49559 7.71798 4.49559C8.5522 4.49559 9.35325 4.82224 9.94959 5.40559C10.5459 5.98895 10.8901 6.78261 10.9085 7.61663Z" fill="#484848"/>
</svg>
