<?xml version="1.0" encoding="UTF-8"?>
<svg id="Livello_2" data-name="Livello 2" xmlns="http://www.w3.org/2000/svg" viewBox="0 0 951.19 220.03">
  <defs>
    <style>
      .cls-1 {
        fill: #000;
        stroke-width: 0px;
      }
    </style>
  </defs>
  <g id="Livello_1-2" data-name="Livello 1">
    <g>
      <g>
        <path class="cls-1" d="M412.71,101.88c5.79,6,8.69,14.63,8.69,25.88v54.54h-16.38v-53.91c0-6.97-1.83-12.24-5.48-15.81-3.65-3.57-8.42-5.35-14.3-5.35-6.55,0-11.78,1.85-15.68,5.54-3.9,3.7-5.86,9.36-5.86,17v52.53h-16.38v-53.91c0-7.05-1.7-12.34-5.1-15.87s-8.04-5.29-13.92-5.29c-6.63,0-11.95,1.87-15.93,5.61-3.99,3.74-5.98,9.38-5.98,16.94v52.53h-16.38v-88.17h15.87v11.59c2.69-4.11,6.34-7.28,10.96-9.51,4.62-2.22,9.95-3.34,16-3.34s11.63,1.18,16.25,3.53c4.62,2.35,8.1,5.67,10.45,9.95,2.94-4.28,6.95-7.6,12.03-9.95,5.08-2.35,10.73-3.53,16.94-3.53,10.33,0,18.39,3,24.19,9.01Z"/>
        <path class="cls-1" d="M508.57,115.05v67.26h-14.99v-8.69c-2.6,3.19-5.82,5.59-9.64,7.18-3.82,1.59-8.04,2.39-12.66,2.39-6.55,0-12.41-1.43-17.57-4.28-5.16-2.85-9.2-6.88-12.09-12.09-2.9-5.21-4.35-11.25-4.35-18.14s1.45-12.91,4.35-18.08c2.9-5.16,6.93-9.17,12.09-12.03,5.16-2.85,11.02-4.28,17.57-4.28,4.37,0,8.38.76,12.03,2.27,3.65,1.51,6.82,3.74,9.51,6.68v-8.19h15.75ZM487.41,163.92c3.78-3.86,5.67-8.94,5.67-15.24s-1.89-11.38-5.67-15.24c-3.78-3.86-8.57-5.79-14.36-5.79s-10.56,1.93-14.3,5.79c-3.74,3.86-5.61,8.94-5.61,15.24s1.87,11.38,5.61,15.24c3.74,3.86,8.5,5.79,14.3,5.79s10.58-1.93,14.36-5.79Z"/>
        <path class="cls-1" d="M535.08,177.46c-3.9-3.82-5.86-9.21-5.86-16.19v-72.43h15.75v71.29c0,6.72,3.15,10.08,9.45,10.08,2.1,0,3.99-.42,5.67-1.26l.76,12.6c-2.94,1.09-6.09,1.64-9.45,1.64-6.97,0-12.41-1.91-16.31-5.73Z"/>
        <path class="cls-1" d="M651.41,94.14v88.17h-16.38v-37.79h-45.6v37.79h-16.38v-88.17h16.38v36.4h45.6v-36.4h16.38Z"/>
        <path class="cls-1" d="M685.42,178.78c-5.46-2.94-9.72-7.03-12.79-12.28-3.07-5.25-4.6-11.19-4.6-17.82s1.53-12.55,4.6-17.76c3.06-5.21,7.33-9.28,12.79-12.22,5.46-2.94,11.59-4.41,18.39-4.41s13.06,1.47,18.52,4.41c5.46,2.94,9.72,7.01,12.79,12.22,3.06,5.21,4.6,11.13,4.6,17.76s-1.53,12.58-4.6,17.82c-3.07,5.25-7.33,9.34-12.79,12.28-5.46,2.94-11.63,4.41-18.52,4.41s-12.93-1.47-18.39-4.41ZM718.17,163.92c3.78-3.86,5.67-8.94,5.67-15.24s-1.89-11.38-5.67-15.24c-3.78-3.86-8.57-5.79-14.36-5.79s-10.56,1.93-14.3,5.79c-3.74,3.86-5.6,8.94-5.6,15.24s1.87,11.38,5.6,15.24c3.74,3.86,8.5,5.79,14.3,5.79s10.58-1.93,14.36-5.79Z"/>
        <path class="cls-1" d="M859.87,121.66c4.95,4.91,7.43,12.28,7.43,22.11v38.54h-15.75v-36.53c0-5.88-1.3-10.31-3.91-13.29-2.6-2.98-6.34-4.47-11.21-4.47-5.29,0-9.53,1.74-12.72,5.23-3.19,3.49-4.79,8.46-4.79,14.93v34.14h-15.75v-36.53c0-5.88-1.3-10.31-3.9-13.29-2.6-2.98-6.34-4.47-11.21-4.47-5.38,0-9.64,1.72-12.79,5.17-3.15,3.44-4.72,8.44-4.72,14.99v34.14h-15.75v-67.26h14.99v8.57c2.52-3.02,5.67-5.33,9.45-6.93,3.78-1.59,7.98-2.39,12.6-2.39,5.04,0,9.51.94,13.41,2.83,3.91,1.89,6.99,4.68,9.26,8.38,2.77-3.53,6.34-6.28,10.71-8.25,4.37-1.97,9.2-2.96,14.49-2.96,8.48,0,15.2,2.46,20.15,7.37Z"/>
        <path class="cls-1" d="M938.35,162.53l8.31,9.7c-2.94,3.61-6.72,6.34-11.34,8.19-4.62,1.85-9.83,2.77-15.62,2.77-7.39,0-13.9-1.47-19.52-4.41-5.63-2.94-9.97-7.03-13.04-12.28-3.07-5.25-4.6-11.19-4.6-17.82s1.49-12.45,4.47-17.7c2.98-5.25,7.1-9.34,12.34-12.28,5.25-2.94,11.19-4.41,17.82-4.41s12.03,1.37,17.19,4.09c5.16,2.73,9.26,6.63,12.28,11.71,3.02,5.08,4.54,11.02,4.54,17.82l-51.52,10.08c1.59,3.86,4.16,6.8,7.68,8.82,3.53,2.02,7.77,3.02,12.72,3.02,7.31,0,13.39-2.43,18.26-7.31ZM903.14,132.56c-3.57,3.78-5.35,8.86-5.35,15.24v.13l38.04-7.31c-1.09-4.11-3.3-7.43-6.61-9.95-3.32-2.52-7.33-3.78-12.03-3.78-5.79,0-10.48,1.89-14.04,5.67Z"/>
      </g>
      <path class="cls-1" d="M98.66,170.14c-3.76-3.69-9.85-3.5-13.37.41-5.21,5.78-10.23,11.36-15.5,16.68-4.43,4.48-9.06,9.55-14.64,11.97-17.25,7.47-35.98-5.05-36.35-23.95-.39-19.9-.11-39.81-.15-59.72-.02-9.86,3.46-18.13,10.86-24.73,25.63-22.83,51.21-45.72,76.87-68.51,6.01-5.33,9.79-5.21,15.83.15,25.81,22.9,51.64,45.77,77.33,68.79,6.52,5.84,10.07,13.23,10.03,22.25-.1,20.45-.06,40.91-.02,61.36.02,11.51-5.62,19.47-15.72,24.19-10.14,4.74-21.59,2.72-29.28-5.45-11.89-12.62-23.3-25.69-35.03-38.46-2.25-2.45-2.1-4.22.11-6.49,2.93-3,5.62-6.24,8.43-9.36,6.96-7.73,13.74-15.64,21.04-23.04l.41-.41c4.39-4.36,11.86-1.26,11.86,4.93v4.51c0,12.52-.16,30.21.02,44.62.06,5.07,4.18,9.15,9.25,9.15h0c5.06,0,9.19-4.06,9.25-9.12.21-15.93.1-34.49.03-49.12-.06-12.46-5.49-20.99-16.94-24.77-9.99-3.29-19.46-1.33-27.77,7.77-5.54,6.06-10.93,12.27-16.45,18.36-4.62,5.11-9.33,10.14-14.61,15.85-11.02-12.14-21.36-23.43-31.58-34.82-7.71-8.6-17.79-10.33-27.41-7.07-10.89,3.69-16.65,12.6-16.77,24.45-.11,10.41-.04,20.82-.03,31.23,0,7.49-.17,14.98.13,22.46.23,5.73,3.79,8.97,9.02,8.99,5.27.02,8.92-3.7,9.2-9.46.09-1.82.03-3.65.03-5.48,0-15.71-.06-31.41.05-47.12.04-5.84,4.68-9.92,8.92-7.84,2.19,1.08,4,3.13,5.7,5,26.11,28.8,52.19,57.63,78.24,86.49,12.88,14.27,31.68,18.6,50.6,11.53,16.51-6.17,27.58-22.54,27.61-40.97.03-21,.08-42.01-.04-63.01-.07-12.64-4.43-23.94-13.71-32.38-27.28-24.81-54.91-49.24-82.58-73.63-9.65-8.5-25.09-8.49-34.76.03C69.67,30.28,42.7,54.35,15.77,78.46,5.53,87.63.7,99.61.4,113.04c-.46,20.81-.61,41.65.02,62.45.57,18.69,9.32,33.05,26.91,40.42,17.75,7.44,34.63,4.91,48.75-8.53,7.11-6.77,15.61-16.2,23-24.47,3.3-3.69,3.11-9.32-.43-12.78h0Z"/>
    </g>
  </g>
</svg>