<svg width="494" height="569" viewBox="0 0 494 569" fill="none" xmlns="http://www.w3.org/2000/svg">
<path d="M485.9 204.803L224.68 4.2828C216.32 -2.1372 204.47 -1.24722 197.16 6.33278L5.8 204.733C2.08 208.593 0 213.753 0 219.113V397.463C0 403.543 2.61 409.323 7.17 413.343C33.34 436.413 124.83 518.013 175.52 563.103C188.88 574.983 210 565.503 210 547.623V331.453C210 314.893 228.15 304.753 242.25 313.413L462.44 473.643C476.24 482.123 493.99 472.193 493.99 455.993V221.233C493.99 214.793 491 208.723 485.89 204.803H485.9ZM459.26 395.003C459.26 406.103 447.1 412.903 437.64 407.093L261.82 278.843C258.01 276.063 255.75 271.623 255.76 266.903L255.86 94.9328C255.86 85.5728 266.38 79.7228 274.1 85.0128C274.31 85.1528 274.52 85.3028 274.72 85.4628L453.72 222.863C457.22 225.553 459.27 229.713 459.27 234.123V394.983L459.26 395.003Z" fill="black"/>
</svg>
