<svg width="2856" height="408" viewBox="0 0 2856 408" fill="none" xmlns="http://www.w3.org/2000/svg">
<path d="M529.78 56.3336C554.835 82.2298 567.279 119.561 567.279 168.074V403.578H496.569V170.765C496.569 140.664 488.665 117.879 472.942 102.493C457.136 87.1064 436.621 79.3712 411.229 79.3712C382.978 79.3712 360.361 87.3586 343.545 103.334C326.646 119.309 318.238 143.775 318.238 176.734V403.578H247.528V170.765C247.528 140.328 240.213 117.459 225.499 102.241C210.785 87.0223 190.774 79.3712 165.383 79.3712C136.712 79.3712 113.758 87.4427 96.6064 103.586C79.3703 119.729 70.7942 144.112 70.7942 176.734V403.578H0V22.8703H68.5241V72.8971C80.127 55.1565 95.9338 41.4517 115.86 31.8667C135.787 22.2817 158.825 17.4893 184.973 17.4893C211.122 17.4893 235.168 22.534 255.179 32.7075C275.105 42.881 290.155 57.1744 300.329 75.6717C313.025 57.1744 330.345 42.881 352.29 32.7075C374.234 22.534 398.617 17.4893 425.438 17.4893C470.084 17.4893 504.892 30.4374 529.864 56.4177L529.78 56.3336Z" fill="#484848"/>
<path d="M943.789 113.171V403.662H879.048V366.163C867.781 379.952 853.908 390.294 837.429 397.188C820.95 404.083 802.705 407.53 782.778 407.53C754.527 407.53 729.22 401.392 706.939 389.033C684.658 376.673 667.254 359.269 654.726 336.82C642.198 314.371 635.977 288.222 635.977 258.459C635.977 228.695 642.198 202.714 654.726 180.433C667.254 158.153 684.658 140.832 706.939 128.473C729.22 116.113 754.527 109.976 782.778 109.976C801.612 109.976 818.932 113.255 834.739 119.729C850.545 126.287 864.166 135.872 875.769 148.568V113.171H943.789ZM852.395 324.208C868.706 307.56 876.862 285.616 876.862 258.374C876.862 231.133 868.706 209.272 852.395 192.541C836.084 175.893 815.4 167.485 790.345 167.485C765.29 167.485 744.774 175.809 728.631 192.541C712.488 209.188 704.417 231.133 704.417 258.374C704.417 285.616 712.488 307.56 728.631 324.208C744.774 340.856 765.374 349.263 790.345 349.263C815.316 349.263 836 340.94 852.395 324.208Z" fill="#484848"/>
<path d="M1058.23 382.642C1041.33 366.163 1032.92 342.873 1032.92 312.773V0H1100.94V307.896C1100.94 336.903 1114.56 351.449 1141.72 351.449C1150.8 351.449 1158.95 349.683 1166.18 345.984L1169.46 400.383C1156.77 405.091 1143.15 407.445 1128.68 407.445C1098.58 407.445 1075.13 399.206 1058.23 382.726V382.642Z" fill="#484848"/>
<path d="M1560.59 22.8672V403.659H1489.88V240.463H1292.97V403.659H1222.26V22.8672H1292.97V180.094H1489.88V22.8672H1560.59Z" fill="#484848"/>
<path d="M1707.46 388.355C1683.92 375.659 1665.5 358.003 1652.22 335.302C1639.02 312.6 1632.38 286.956 1632.38 258.286C1632.38 229.615 1639.02 204.055 1652.22 181.606C1665.42 159.157 1683.83 141.5 1707.46 128.805C1731 116.109 1757.48 109.803 1786.91 109.803C1816.34 109.803 1843.33 116.109 1866.87 128.805C1890.41 141.5 1908.83 159.073 1922.11 181.606C1935.31 204.055 1941.95 229.699 1941.95 258.286C1941.95 286.872 1935.31 312.6 1922.11 335.302C1908.83 358.003 1890.5 375.659 1866.87 388.355C1843.33 401.051 1816.68 407.357 1786.91 407.357C1757.15 407.357 1731.08 401.051 1707.46 388.355ZM1848.88 324.203C1865.19 307.556 1873.34 285.611 1873.34 258.37C1873.34 231.128 1865.19 209.268 1848.88 192.536C1832.57 175.889 1811.88 167.481 1786.83 167.481C1761.77 167.481 1741.26 175.804 1725.11 192.536C1708.97 209.184 1700.9 231.128 1700.9 258.37C1700.9 285.611 1708.97 307.556 1725.11 324.203C1741.26 340.851 1761.86 349.259 1786.83 349.259C1811.8 349.259 1832.48 340.935 1848.88 324.203Z" fill="#484848"/>
<path d="M2460.81 141.675C2482.17 162.863 2492.93 194.729 2492.93 237.105V403.58H2424.91V245.849C2424.91 220.457 2419.27 201.371 2408.01 188.423C2396.74 175.559 2380.6 169.085 2359.58 169.085C2336.71 169.085 2318.38 176.652 2304.68 191.618C2290.89 206.668 2283.99 228.192 2283.99 256.106V403.496H2215.97V245.765C2215.97 220.373 2210.34 201.287 2199.07 188.339C2187.81 175.475 2171.66 169.001 2150.64 169.001C2127.44 169.001 2109.02 176.4 2095.4 191.282C2081.78 206.164 2074.97 227.688 2074.97 256.022V403.412H2006.95V113.173H2071.69V150.167C2082.54 137.135 2096.16 127.13 2112.47 120.235C2128.78 113.341 2146.94 109.894 2166.87 109.894C2188.65 109.894 2207.9 113.929 2224.8 122.169C2241.7 130.325 2254.99 142.348 2264.74 158.323C2276.68 143.105 2292.15 131.25 2310.98 122.674C2329.82 114.182 2350.67 109.894 2373.54 109.894C2410.19 109.894 2439.2 120.487 2460.56 141.675H2460.81Z" fill="#484848"/>
<path d="M2799.72 318.24L2835.62 360.112C2822.93 375.75 2806.61 387.521 2786.69 395.509C2766.76 403.496 2744.23 407.448 2719.26 407.448C2687.31 407.448 2659.22 401.142 2634.93 388.446C2610.63 375.75 2591.88 358.094 2578.59 335.393C2565.39 312.691 2558.75 287.047 2558.75 258.376C2558.75 229.706 2565.22 204.65 2578.09 181.949C2590.95 159.332 2608.69 141.591 2631.39 128.895C2654.1 116.199 2679.74 109.894 2708.33 109.894C2736.91 109.894 2760.29 115.779 2782.57 127.55C2804.85 139.321 2822.59 156.221 2835.62 178.165C2848.65 200.11 2855.21 225.754 2855.21 255.097L2632.74 298.65C2639.63 315.298 2650.73 327.994 2665.95 336.738C2681.17 345.482 2699.5 349.77 2720.85 349.77C2752.38 349.77 2778.7 339.26 2799.72 318.24ZM2647.62 188.759C2632.23 205.071 2624.5 227.015 2624.5 254.593V255.097L2788.79 223.568C2784.08 205.827 2774.58 191.45 2760.2 180.604C2745.91 169.758 2728.59 164.292 2708.24 164.292C2683.19 164.292 2663.01 172.448 2647.62 188.759Z" fill="#484848"/>
</svg>
