<svg width="169" height="140" viewBox="0 0 169 140" fill="none" xmlns="http://www.w3.org/2000/svg">
<path d="M119.21 92.3831L147.033 68.5867L168.999 70.4172L136.783 98.4237L146.301 139.976L127.63 128.627L119.21 92.3831ZM102.003 38.9327L94.3151 20.9938L102.735 0.858398L119.576 40.5801L102.003 38.9327ZM50.7493 109.407L73.8135 95.4949L96.8778 109.59L90.8371 83.2306L111.156 65.6579L84.4304 63.2783L73.8135 38.3835L63.1967 63.0952L36.4714 65.4748L56.7899 83.2306L50.7493 109.407ZM28.6003 139.976L40.4985 88.5391L0.59375 53.9427L53.312 49.3665L73.8135 0.858398L94.3151 49.3665L147.033 53.9427L107.129 88.5391L119.027 139.976L73.8135 112.702L28.6003 139.976Z" fill="#1C1B1F"/>
</svg>
