<svg width="18" height="18" viewBox="0 0 18 18" fill="none" xmlns="http://www.w3.org/2000/svg">
<mask id="mask0_453_1503" style="mask-type:alpha" maskUnits="userSpaceOnUse" x="0" y="0" width="18" height="18">
<rect width="18" height="18" fill="#D9D9D9"/>
</mask>
<g mask="url(#mask0_453_1503)">
<path d="M3 13.5C2.5875 13.5 2.23438 13.3531 1.94063 13.0594C1.64688 12.7656 1.5 12.4125 1.5 12V6C1.5 5.5875 1.64688 5.23438 1.94063 4.94063C2.23438 4.64688 2.5875 4.5 3 4.5H15C15.4125 4.5 15.7656 4.64688 16.0594 4.94063C16.3531 5.23438 16.5 5.5875 16.5 6V12C16.5 12.4125 16.3531 12.7656 16.0594 13.0594C15.7656 13.3531 15.4125 13.5 15 13.5H3ZM3 12H15V6H12.75V9H11.25V6H9.75V9H8.25V6H6.75V9H5.25V6H3V12Z" fill="#1C1B1F"/>
</g>
</svg>
