<svg width="40" height="32" viewBox="0 0 40 32" fill="none" xmlns="http://www.w3.org/2000/svg">
<path d="M39.1769 4.29126C37.7689 4.91658 36.2564 5.3391 34.6664 5.53008C36.307 4.54611 37.5344 2.99745 38.1196 1.17308C36.5782 2.09077 34.8912 2.73672 33.1319 3.08286C31.9489 1.81677 30.3819 0.977584 28.6742 0.695592C26.9666 0.4136 25.2138 0.704579 23.6881 1.52335C22.1623 2.34213 20.949 3.64288 20.2363 5.22368C19.5237 6.80447 19.3517 8.57685 19.7471 10.2657C16.6238 10.1085 13.5683 9.29479 10.7791 7.87743C7.98978 6.46006 5.52902 4.47068 3.55646 2.0384C2.88199 3.20454 2.49418 4.5566 2.49418 5.99654C2.49342 7.29282 2.81191 8.56923 3.42137 9.71255C4.03083 10.8559 4.91242 11.8307 5.98793 12.5506C4.74062 12.5109 3.52084 12.173 2.4301 11.5653V11.6667C2.42997 13.4848 3.05741 15.2469 4.20595 16.6541C5.35449 18.0613 6.95338 19.0269 8.73133 19.387C7.57425 19.7008 6.36114 19.7471 5.18362 19.5222C5.68525 21.0865 6.66239 22.4545 7.97823 23.4346C9.29407 24.4146 10.8827 24.9577 12.5218 24.9879C9.73938 27.1772 6.30305 28.3648 2.76565 28.3595C2.13904 28.3597 1.51295 28.323 0.890625 28.2497C4.48129 30.5637 8.66108 31.7918 12.9299 31.787C27.3804 31.787 35.2801 19.7909 35.2801 9.38682C35.2801 9.04881 35.2717 8.70741 35.2565 8.3694C36.7931 7.2556 38.1195 5.87637 39.1735 4.29633L39.1769 4.29126V4.29126Z" fill="#484848"/>
</svg>
