<svg width="31" height="31" viewBox="0 0 31 31" fill="none" xmlns="http://www.w3.org/2000/svg">
<path d="M15.561 0.915039C7.33607 0.915039 0.671875 7.57924 0.671875 15.8041C0.671875 24.029 7.33607 30.6932 15.561 30.6932C23.7859 30.6932 30.4501 24.029 30.4501 15.8041C30.4501 7.57924 23.7859 0.915039 15.561 0.915039ZM9.91109 22.3108C9.81972 22.4666 9.68894 22.5957 9.53189 22.6849C9.37484 22.7742 9.19705 22.8205 9.01641 22.8193C8.83231 22.8209 8.6514 22.7712 8.49397 22.6757C8.37675 22.6078 8.2741 22.5174 8.19191 22.4097C8.10972 22.302 8.04961 22.1791 8.01502 22.0481C7.98044 21.9171 7.97206 21.7806 7.99038 21.6464C8.00869 21.5121 8.05333 21.3828 8.12174 21.2659L9.13805 19.5763C9.18941 19.489 9.26268 19.4168 9.3506 19.3666C9.43852 19.3165 9.53802 19.2902 9.63923 19.2904H9.78945C10.5266 19.2904 11.0424 19.7338 11.1926 20.1632L9.91109 22.3108ZM18.5155 18.9873L11.86 18.9947H7.43644C7.29727 18.9952 7.15942 18.9676 7.03127 18.9133C6.90312 18.859 6.78733 18.7792 6.69092 18.6788C6.59452 18.5785 6.51951 18.4595 6.47045 18.3293C6.42139 18.1991 6.39929 18.0602 6.40551 17.9212C6.42678 17.3628 6.91399 16.9401 7.46901 16.9401H10.6755L14.4769 10.4693L13.2458 8.37221C12.9687 7.8943 13.0916 7.26417 13.5669 6.96373C13.6841 6.88796 13.8153 6.83666 13.9528 6.81292C14.0903 6.78918 14.2312 6.79349 14.367 6.82559C14.5028 6.85769 14.6307 6.91692 14.743 6.99971C14.8553 7.08251 14.9497 7.18716 15.0206 7.30738L15.6786 8.43137H15.6859L16.3446 7.30738C16.4156 7.18778 16.5098 7.08369 16.6218 7.00131C16.7338 6.91893 16.8613 6.85995 16.9966 6.82788C17.1318 6.79581 17.2722 6.79131 17.4093 6.81465C17.5463 6.83799 17.6773 6.88869 17.7943 6.96373C18.2669 7.26417 18.3886 7.8943 18.1094 8.37421L16.8784 10.4713L15.6819 12.5112L13.0837 16.9421V16.9494H16.913C17.3929 16.9494 17.9944 17.2073 18.2377 17.6221L18.259 17.6653C18.4736 18.0302 18.5953 18.2808 18.5953 18.6457C18.5918 18.7642 18.5654 18.8809 18.5175 18.9893L18.5155 18.9873ZM23.6835 18.9947H21.8815V19.002L23.1989 21.2426C23.3406 21.4786 23.384 21.7608 23.3197 22.0284C23.2555 22.2961 23.0887 22.5278 22.8553 22.6737C22.6935 22.7724 22.5077 22.8246 22.3182 22.8246C22.1381 22.8245 21.961 22.7778 21.8042 22.6891C21.6475 22.6003 21.5163 22.4725 21.4235 22.3181L19.4767 19.004L18.2669 16.9434L16.7062 14.2753C16.4802 13.8944 16.3573 13.4611 16.3497 13.0182C16.3422 12.5752 16.4501 12.138 16.663 11.7495C16.9714 11.2051 17.2074 11.0622 17.2074 11.0622L20.6791 16.9341H23.6642C24.2226 16.9341 24.7018 17.3635 24.7277 17.9145C24.7331 18.0546 24.7101 18.1944 24.6601 18.3253C24.6101 18.4563 24.5342 18.5758 24.4368 18.6767C24.3395 18.7776 24.2227 18.8578 24.0936 18.9124C23.9645 18.9671 23.8257 18.995 23.6855 18.9947H23.6835Z" fill="#484848"/>
</svg>
